<svg width="3045" height="1111" viewBox="0 0 3045 1111" fill="none" xmlns="http://www.w3.org/2000/svg">
<mask id="mask0_53627_2" style="mask-type:alpha" maskUnits="userSpaceOnUse" x="0" y="0" width="3044" height="1087">
<path d="M88 583C73.3333 579.667 59.6667 574 47 566C34.3333 558 23.6667 547 15 533L49 482C81 434.667 109.667 402.667 135 386C161 369.333 189 361 219 361C249 361 274.333 370 295 388C315.667 405.333 330 429 338 459C356.667 427.667 380.667 403.667 410 387C439.333 369.667 472 361 508 361C560 361 600 378 628 412C656.667 446 671 493.667 671 555V672C671 708.667 675.667 735 685 751C695 767 710.667 775 732 775C741.333 775 748.333 779 753 787C758.333 795 761 805.667 761 819C761 829.667 758 839.333 752 848C746.667 856.667 737.667 861 725 861C628.333 861 580 801.667 580 683V555C580 483 551.667 447 495 447C465.667 447 439.667 458.667 417 482C395 505.333 377.667 537.667 365 579C353 620.333 347 668.333 347 723V847C340.333 849 333 850.667 325 852C317 853.333 309.333 854 302 854C286 854 271 851.667 257 847V528C257 502 253.667 482 247 468C240.333 454 228.333 447 211 447C201 447 189.667 451.667 177 461C165 469.667 148.667 490 128 522L88 583ZM732.398 775C754.398 775 775.732 764.667 796.398 744C817.732 722.667 835.732 694.333 850.398 659C847.732 643 846.398 626.667 846.398 610C846.398 562 856.732 519.333 877.398 482C898.065 444.667 926.065 415.333 961.398 394C997.398 372 1037.73 361 1082.4 361C1127.07 361 1167.07 372 1202.4 394C1237.73 415.333 1265.4 444.667 1285.4 482C1306.07 519.333 1316.4 562 1316.4 610C1316.4 658 1306.07 701 1285.4 739C1265.4 777 1237.73 807 1202.4 829C1167.73 850.333 1127.73 861 1082.4 861C1041.73 861 1004.73 852.333 971.398 835C938.732 817 911.732 792.667 890.398 762C849.065 828 794.065 861 725.398 861C716.732 861 709.732 857 704.398 849C699.065 841 696.398 830.667 696.398 818C696.398 789.333 708.398 775 732.398 775ZM1081.4 775C1124.07 775 1158.07 760 1183.4 730C1209.4 700 1222.4 660 1222.4 610C1222.4 585.333 1218.73 562.667 1211.4 542C1171.4 540.667 1135.07 532.667 1102.4 518C1070.4 503.333 1045.07 483.333 1026.4 458C999.732 469.333 978.732 488.667 963.398 516C948.065 542.667 940.398 574.667 940.398 612C940.398 660.667 953.065 700 978.398 730C1004.4 760 1038.73 775 1081.4 775ZM1638.26 861C1575.59 861 1530.26 838 1502.26 792C1474.92 745.333 1461.26 681.333 1461.26 600V412C1429.92 448.667 1393.92 476.667 1353.26 496C1312.59 515.333 1274.59 525 1239.26 525C1226.59 525 1217.26 521 1211.26 513C1204.59 504.333 1201.26 493.667 1201.26 481C1201.26 457.667 1211.59 445 1232.26 443C1272.26 438.333 1309.59 425.667 1344.26 405C1378.92 383.667 1406.92 356 1428.26 322C1450.26 287.333 1461.26 248.667 1461.26 206V118C1473.92 113.333 1489.26 111 1507.26 111C1523.26 111 1538.59 113.333 1553.26 118V295H1702.26C1706.92 305.667 1709.26 319 1709.26 335C1709.26 351 1706.92 364.333 1702.26 375H1553.26V589C1553.26 650.333 1560.26 696.667 1574.26 728C1588.92 759.333 1612.59 775 1645.26 775C1664.59 775 1674.26 789.667 1674.26 819C1674.26 831.667 1670.92 841.667 1664.26 849C1658.26 857 1649.59 861 1638.26 861ZM1638.48 861C1629.82 861 1622.82 857 1617.48 849C1612.15 841 1609.48 830.667 1609.48 818C1609.48 789.333 1621.48 775 1645.48 775C1664.82 775 1684.48 772 1704.48 766C1724.48 759.333 1747.82 748.333 1774.48 733C1748.48 687.667 1735.48 634.333 1735.48 573C1735.48 531.667 1743.15 495.333 1758.48 464C1773.82 432 1795.15 407 1822.48 389C1849.82 370.333 1880.82 361 1915.48 361C1944.82 361 1970.82 368 1993.48 382C2016.15 395.333 2033.82 414 2046.48 438C2059.15 462 2065.48 489.667 2065.48 521C2065.48 563.667 2052.82 602.667 2027.48 638C2002.82 673.333 1960.82 711.667 1901.48 753C1922.82 768.333 1951.48 776 1987.48 776C1996.82 776 2004.15 780 2009.48 788C2014.82 796 2017.48 806.667 2017.48 820C2017.48 832.667 2014.48 842.667 2008.48 850C2002.48 857.333 1993.82 861 1982.48 861C1950.48 861 1920.48 855.667 1892.48 845C1864.48 834.333 1841.15 819.667 1822.48 801C1758.48 841 1697.15 861 1638.48 861ZM1822.48 565C1822.48 617.667 1831.82 659.667 1850.48 691C1893.82 661 1925.82 631.667 1946.48 603C1967.82 574.333 1978.48 547 1978.48 521C1978.48 497 1972.48 478.333 1960.48 465C1949.15 451 1933.15 444 1912.48 444C1886.48 444 1864.82 455.667 1847.48 479C1830.82 502.333 1822.48 531 1822.48 565ZM1982.87 861C1973.53 861 1966.2 857 1960.87 849C1954.87 841 1951.87 830.667 1951.87 818C1951.87 804.667 1955.2 794.333 1961.87 787C1968.53 779.667 1977.2 776 1987.87 776C2027.87 776 2064.53 765.333 2097.87 744C2131.87 722 2159.87 692.333 2181.87 655C2180.53 645 2179.87 634.333 2179.87 623C2179.87 572.333 2189.87 527.333 2209.87 488C2229.87 448.667 2256.87 417.667 2290.87 395C2325.53 372.333 2364.87 361 2408.87 361C2432.2 361 2455.2 365.667 2477.87 375C2500.53 383.667 2519.53 395.667 2534.87 411V6.99997C2547.53 2.33328 2562.87 -6.24657e-05 2580.87 -6.24657e-05C2596.2 -6.24657e-05 2611.2 2.33328 2625.87 6.99997V672C2625.87 708.667 2630.53 735 2639.87 751C2649.87 767 2665.53 775 2686.87 775C2694.2 775 2702.2 773.333 2710.87 770C2719.53 766.667 2728.53 761.667 2737.87 755C2749.2 760.333 2758.53 769.667 2765.87 783C2773.2 795.667 2776.53 808.333 2775.87 821C2765.2 833 2751.53 842.667 2734.87 850C2718.2 857.333 2700.2 861 2680.87 861H2679.87C2616.53 861 2573.87 835 2551.87 783C2532.53 807.667 2509.2 827 2481.87 841C2454.53 854.333 2424.2 861 2390.87 861C2350.87 861 2315.53 852 2284.87 834C2254.87 816 2230.87 791 2212.87 759C2184.87 791.667 2151.2 817 2111.87 835C2072.53 852.333 2029.53 861 1982.87 861ZM2272.87 623C2272.87 670.333 2283.53 707.667 2304.87 735C2326.87 761.667 2356.87 775 2394.87 775C2436.87 775 2470.53 760.667 2495.87 732C2521.87 703.333 2534.87 665.667 2534.87 619V507C2521.53 489 2504.53 474.667 2483.87 464C2463.2 452.667 2441.87 447 2419.87 447C2391.2 447 2365.87 454.667 2343.87 470C2321.87 485.333 2304.53 506.333 2291.87 533C2279.2 559 2272.87 589 2272.87 623ZM2892.5 861C2873.83 861 2857.83 854.333 2844.5 841C2831.17 827 2824.5 810.667 2824.5 792C2824.5 773.333 2831.17 757.333 2844.5 744C2857.83 730.667 2873.83 724 2892.5 724C2911.17 724 2927.17 730.667 2940.5 744C2954.5 757.333 2961.5 773.333 2961.5 792C2961.5 810.667 2954.5 827 2940.5 841C2927.17 854.333 2911.17 861 2892.5 861Z" fill="white"/>
<path d="M0 1053.67C-18.4095 1053.67 -33.3333 1068.59 -33.3333 1087C-33.3333 1105.41 -18.4095 1120.33 0 1120.33V1087V1053.67ZM0 1087V1120.33C60.2195 1120.33 91.0627 1083.55 112.586 1058.95C134.813 1033.55 147.72 1020.33 175 1020.33V987V953.667C114.78 953.667 83.9373 990.452 62.4141 1015.05C40.1873 1040.45 27.2805 1053.67 0 1053.67V1087Z" fill="white"/>
<path d="M175 987V1020.33C202.28 1020.33 215.187 1033.55 237.414 1058.95C258.937 1083.55 289.78 1120.33 350 1120.33V1087V1053.67C322.72 1053.67 309.813 1040.45 287.586 1015.05C266.063 990.452 235.22 953.667 175 953.667V987Z" fill="white"/>
<path d="M350 1087V1120.33C410.22 1120.33 441.063 1083.55 462.586 1058.95C484.813 1033.55 497.72 1020.33 525 1020.33V987V953.667C464.78 953.667 433.937 990.452 412.414 1015.05C390.187 1040.45 377.28 1053.67 350 1053.67V1087Z" fill="white"/>
<path d="M525 987V1020.33C552.28 1020.33 565.187 1033.55 587.414 1058.95C608.937 1083.55 639.78 1120.33 700 1120.33V1087V1053.67C672.72 1053.67 659.813 1040.45 637.586 1015.05C616.063 990.452 585.22 953.667 525 953.667V987Z" fill="white"/>
<path d="M700 1087V1120.33C760.22 1120.33 791.063 1083.55 812.586 1058.95C834.813 1033.55 847.72 1020.33 875 1020.33V987V953.667C814.78 953.667 783.937 990.452 762.414 1015.05C740.187 1040.45 727.28 1053.67 700 1053.67V1087Z" fill="white"/>
<path d="M875 987V1020.33C902.28 1020.33 915.187 1033.55 937.414 1058.95C958.937 1083.55 989.78 1120.33 1050 1120.33V1087V1053.67C1022.72 1053.67 1009.81 1040.45 987.586 1015.05C966.063 990.452 935.22 953.667 875 953.667V987Z" fill="white"/>
<path d="M1050 1087V1120.33C1110.22 1120.33 1141.06 1083.55 1162.59 1058.95C1184.81 1033.55 1197.72 1020.33 1225 1020.33V987V953.667C1164.78 953.667 1133.94 990.452 1112.41 1015.05C1090.19 1040.45 1077.28 1053.67 1050 1053.67V1087Z" fill="white"/>
<path d="M1225 987V1020.33C1252.28 1020.33 1265.19 1033.55 1287.41 1058.95C1308.94 1083.55 1339.78 1120.33 1400 1120.33V1087V1053.67C1372.72 1053.67 1359.81 1040.45 1337.59 1015.05C1316.06 990.452 1285.22 953.667 1225 953.667V987Z" fill="white"/>
<path d="M1400 1087V1120.33C1460.22 1120.33 1491.06 1083.55 1512.59 1058.95C1534.81 1033.55 1547.72 1020.33 1575 1020.33V987V953.667C1514.78 953.667 1483.94 990.452 1462.41 1015.05C1440.19 1040.45 1427.28 1053.67 1400 1053.67V1087Z" fill="white"/>
<path d="M1575 987V1020.33C1602.28 1020.33 1615.19 1033.55 1637.41 1058.95C1658.94 1083.55 1689.78 1120.33 1750 1120.33V1087V1053.67C1722.72 1053.67 1709.81 1040.45 1687.59 1015.05C1666.06 990.452 1635.22 953.667 1575 953.667V987Z" fill="white"/>
<path d="M1750 1087V1120.33C1810.22 1120.33 1841.06 1083.55 1862.59 1058.95C1884.81 1033.55 1897.72 1020.33 1925 1020.33V987V953.667C1864.78 953.667 1833.94 990.452 1812.41 1015.05C1790.19 1040.45 1777.28 1053.67 1750 1053.67V1087Z" fill="white"/>
<path d="M1925 987V1020.33C1952.28 1020.33 1965.19 1033.55 1987.41 1058.95C2008.94 1083.55 2039.78 1120.33 2100 1120.33V1087V1053.67C2072.72 1053.67 2059.81 1040.45 2037.59 1015.05C2016.06 990.452 1985.22 953.667 1925 953.667V987Z" fill="white"/>
<path d="M2100 1087V1120.33C2160.22 1120.33 2191.06 1083.55 2212.59 1058.95C2234.81 1033.55 2247.72 1020.33 2275 1020.33V987V953.667C2214.78 953.667 2183.94 990.452 2162.41 1015.05C2140.19 1040.45 2127.28 1053.67 2100 1053.67V1087Z" fill="white"/>
<path d="M2275 987V1020.33C2302.28 1020.33 2315.19 1033.55 2337.41 1058.95C2358.94 1083.55 2389.78 1120.33 2450 1120.33V1087V1053.67C2422.72 1053.67 2409.81 1040.45 2387.59 1015.05C2366.06 990.452 2335.22 953.667 2275 953.667V987Z" fill="white"/>
<path d="M2450 1087V1120.33C2510.22 1120.33 2541.06 1083.55 2562.59 1058.95C2584.81 1033.55 2597.72 1020.33 2625 1020.33V987V953.667C2564.78 953.667 2533.94 990.452 2512.41 1015.05C2490.19 1040.45 2477.28 1053.67 2450 1053.67V1087Z" fill="white"/>
<path d="M2625 987V1020.33C2652.28 1020.33 2665.19 1033.55 2687.41 1058.95C2708.94 1083.55 2739.78 1120.33 2800 1120.33V1087V1053.67C2772.72 1053.67 2759.81 1040.45 2737.59 1015.05C2716.06 990.452 2685.22 953.667 2625 953.667V987Z" fill="white"/>
<path d="M2800 1087V1120.33C2860.22 1120.33 2891.06 1083.55 2912.59 1058.95C2934.81 1033.55 2947.72 1020.33 2975 1020.33V987V953.667C2914.78 953.667 2883.94 990.452 2862.41 1015.05C2840.19 1040.45 2827.28 1053.67 2800 1053.67V1087ZM2975 1020.33C2993.41 1020.33 3008.33 1005.41 3008.33 987C3008.33 968.591 2993.41 953.667 2975 953.667V987V1020.33Z" fill="white"/>
</mask>
<g mask="url(#mask0_53627_2)">
<g filter="url(#filter0_i_53627_2)">
<rect x="-576" y="-1498" width="3621" height="3621" rx="20" fill="url(#paint0_linear_53627_2)"/>
<rect x="-576" y="-1498" width="3621" height="3621" rx="20" fill="url(#paint1_radial_53627_2)" fill-opacity="0.6"/>
</g>
<rect x="-575.5" y="-1497.5" width="3620" height="3620" rx="19.5" stroke="url(#paint2_linear_53627_2)"/>
</g>
<defs>
<filter id="filter0_i_53627_2" x="-576" y="-1498" width="3621" height="3625" filterUnits="userSpaceOnUse" color-interpolation-filters="sRGB">
<feFlood flood-opacity="0" result="BackgroundImageFix"/>
<feBlend mode="normal" in="SourceGraphic" in2="BackgroundImageFix" result="shape"/>
<feColorMatrix in="SourceAlpha" type="matrix" values="0 0 0 0 0 0 0 0 0 0 0 0 0 0 0 0 0 0 127 0" result="hardAlpha"/>
<feOffset dy="4"/>
<feGaussianBlur stdDeviation="3"/>
<feComposite in2="hardAlpha" operator="arithmetic" k2="-1" k3="1"/>
<feColorMatrix type="matrix" values="0 0 0 0 1 0 0 0 0 1 0 0 0 0 1 0 0 0 0.6 0"/>
<feBlend mode="normal" in2="shape" result="effect1_innerShadow_53627_2"/>
</filter>
<linearGradient id="paint0_linear_53627_2" x1="-485.475" y1="-1422.56" x2="2577.29" y2="1821.25" gradientUnits="userSpaceOnUse">
<stop stop-color="white"/>
<stop offset="0.39" stop-color="white"/>
<stop offset="0.88" stop-color="white"/>
</linearGradient>
<radialGradient id="paint1_radial_53627_2" cx="0" cy="0" r="1" gradientUnits="userSpaceOnUse" gradientTransform="translate(-259.162 -1498) rotate(59.1986) scale(1826.77)">
<stop stop-color="white"/>
<stop offset="1" stop-color="white" stop-opacity="0"/>
</radialGradient>
<linearGradient id="paint2_linear_53627_2" x1="1234.5" y1="-1498" x2="1234.5" y2="1594.94" gradientUnits="userSpaceOnUse">
<stop stop-color="white" stop-opacity="0.53"/>
<stop offset="1" stop-color="white" stop-opacity="0"/>
</linearGradient>
</defs>
</svg>
