<svg xmlns="http://www.w3.org/2000/svg" width="3045" height="1111" fill="none" viewBox="0 0 3045 1111"><mask id="a" width="3044" height="1087" x="0" y="0" maskUnits="userSpaceOnUse" style="mask-type:alpha"><path fill="#fff" d="M88 583q-22-5-41-17t-32-33l34-51q48-71 86-96 39-25 84-25t76 27q31 26 43 71 28-47 72-72 44-26 98-26 78 0 120 51 43 51 43 143v117q0 55 14 79 15 24 47 24 14 0 21 12 8 12 8 32 0 16-9 29-8 13-27 13-145 0-145-178V555q0-108-85-108-44 0-78 35-33 35-52 97-18 62-18 144v124q-10 3-22 5t-23 2q-24 0-45-7V528q0-39-10-60t-36-21q-15 0-34 14-18 13-49 61zm644.398 192q33 0 64-31 32.001-32 54-85-4-24-4-49 0-72 31-128t84-88q53.998-33 121.002-33 67.005 0 120 33c35.33 21.333 63 50.667 83 88 20.67 37.333 31 80 31 128s-10.33 91-31 129c-20 38-47.67 68-83 90q-52.005 32-120 32-61.005 0-111.002-26-48.999-27-81-73-62 99-165 99-12.999 0-21-12t-8-31q0-43 36-43m349.002 0q64.005 0 102-45 39-45 39-120c0-24.667-3.67-47.333-11-68-40-1.333-76.33-9.333-109-24-32-14.667-57.33-34.667-76-60q-40.001 17-63.002 58-23 40-23 96 0 73 38 118c26.002 30 60.332 45 103.002 45m556.86 86c-62.67 0-108-23-136-69-27.34-46.667-41-110.667-41-192V412q-47.01 55-108 84-61.005 29-114 29c-12.67 0-22-4-28-12-6.67-8.667-10-19.333-10-32 0-23.333 10.33-36 31-38 40-4.667 77.33-17.333 112-38q51.99-32 84-83 33-52 33-116v-88c12.66-4.667 28-7 46-7 16 0 31.33 2.333 46 7v177h149c4.66 10.667 7 24 7 40s-2.34 29.333-7 40h-149v214q0 92 21 139c14.66 31.333 38.33 47 71 47 19.33 0 29 14.667 29 44 0 12.667-3.34 22.667-10 30-6 8-14.67 12-26 12m.22 0q-12.99 0-21-12c-5.33-8-8-18.333-8-31q0-43 36-43c19.34 0 39-3 59-9 20-6.667 43.34-17.667 70-33q-39-68-39-160c0-41.333 7.67-77.667 23-109 15.34-32 36.67-57 64-75q41.01-28 93-28 44.01 0 78 21c22.67 13.333 40.34 32 53 56 12.67 24 19 51.667 19 83 0 42.667-12.66 81.667-38 117q-36.99 53-126 115c21.34 15.333 50 23 86 23 9.34 0 16.67 4 22 12 5.34 8 8 18.667 8 32q0 19-9 30c-6 7.333-14.66 11-26 11q-48 0-90-16c-28-10.667-51.33-25.333-70-44-64 40-125.33 60-184 60m184-296c0 52.667 9.34 94.667 28 126q65.01-45 96-88c21.34-28.667 32-56 32-82q0-36-18-56-16.995-21-48-21c-26 0-47.66 11.667-65 35-16.66 23.333-25 52-25 86m160.39 296c-9.34 0-16.67-4-22-12q-9-12-9-31c0-13.333 3.33-23.667 10-31 6.66-7.333 15.33-11 26-11 40 0 76.66-10.667 110-32q51-33 84-89c-1.34-10-2-20.667-2-32q0-76 30-135t81-93c34.66-22.667 74-34 118-34q34.995 0 69 14 33.99 13 57 36V7c12.66-4.667 28-7 46-7q22.995 0 45 7v665c0 36.667 4.66 63 14 79 10 16 25.66 24 47 24q10.995 0 24-5 12.99-5 27-15c11.33 5.333 20.66 14.667 28 28 7.33 12.667 10.66 25.333 10 38-10.67 12-24.34 21.667-41 29q-25.005 11-54 11h-1c-63.34 0-106-26-128-78-19.34 24.667-42.67 44-70 58-27.34 13.333-57.67 20-91 20-40 0-75.34-9-106-27q-45-27-72-75c-28 32.667-61.67 58-101 76q-59.01 26-129 26m290-238c0 47.333 10.66 84.667 32 112q33 40 90 40c42 0 75.66-14.333 101-43q39-43 39-113V507q-20.01-27-51-43c-20.67-11.333-42-17-64-17-28.67 0-54 7.667-76 23s-39.34 36.333-52 63c-12.67 26-19 56-19 90m619.63 238q-28.005 0-48-20c-13.33-14-20-30.333-20-49s6.67-34.667 20-48q19.995-20 48-20t48 20q21 20 21 48t-21 49q-19.995 20-48 20M0 1053.67c-18.41 0-33.333 14.92-33.333 33.33S-18.41 1120.33 0 1120.33zM0 1087v33.33c60.22 0 91.063-36.78 112.586-61.38 22.227-25.4 35.134-38.62 62.414-38.62v-66.663c-60.22 0-91.063 36.785-112.586 61.383-22.227 25.4-35.133 38.62-62.414 38.62zm175-100v33.33c27.28 0 40.187 13.22 62.414 38.62 21.523 24.6 52.366 61.38 112.586 61.38v-66.66c-27.28 0-40.187-13.22-62.414-38.62-21.523-24.598-52.366-61.383-112.586-61.383zm175 100v33.33c60.22 0 91.063-36.78 112.586-61.38 22.227-25.4 35.134-38.62 62.414-38.62v-66.663c-60.22 0-91.063 36.785-112.586 61.383-22.227 25.4-35.134 38.62-62.414 38.62zm175-100v33.33c27.28 0 40.187 13.22 62.414 38.62 21.523 24.6 52.366 61.38 112.586 61.38v-66.66c-27.28 0-40.187-13.22-62.414-38.62-21.523-24.598-52.366-61.383-112.586-61.383zm175 100v33.33c60.22 0 91.063-36.78 112.586-61.38 22.227-25.4 35.134-38.62 62.414-38.62v-66.663c-60.22 0-91.063 36.785-112.586 61.383-22.227 25.4-35.134 38.62-62.414 38.62zm175-100v33.33c27.28 0 40.187 13.22 62.414 38.62 21.523 24.6 52.366 61.38 112.586 61.38v-66.66c-27.28 0-40.19-13.22-62.414-38.62-21.523-24.598-52.366-61.383-112.586-61.383zm175 100v33.33c60.22 0 91.06-36.78 112.59-61.38 22.22-25.4 35.13-38.62 62.41-38.62v-66.663c-60.22 0-91.06 36.785-112.59 61.383-22.22 25.4-35.13 38.62-62.41 38.62zm175-100v33.33c27.28 0 40.19 13.22 62.41 38.62 21.53 24.6 52.37 61.38 112.59 61.38v-66.66c-27.28 0-40.19-13.22-62.41-38.62-21.53-24.598-52.37-61.383-112.59-61.383zm175 100v33.33c60.22 0 91.06-36.78 112.59-61.38 22.22-25.4 35.13-38.62 62.41-38.62v-66.663c-60.22 0-91.06 36.785-112.59 61.383-22.22 25.4-35.13 38.62-62.41 38.62zm175-100v33.33c27.28 0 40.19 13.22 62.41 38.62 21.53 24.6 52.37 61.38 112.59 61.38v-66.66c-27.28 0-40.19-13.22-62.41-38.62-21.53-24.598-52.37-61.383-112.59-61.383zm175 100v33.33c60.22 0 91.06-36.78 112.59-61.38 22.22-25.4 35.13-38.62 62.41-38.62v-66.663c-60.22 0-91.06 36.785-112.59 61.383-22.22 25.4-35.13 38.62-62.41 38.62zm175-100v33.33c27.28 0 40.19 13.22 62.41 38.62 21.53 24.6 52.37 61.38 112.59 61.38v-66.66c-27.28 0-40.19-13.22-62.41-38.62-21.53-24.598-52.37-61.383-112.59-61.383zm175 100v33.33c60.22 0 91.06-36.78 112.59-61.38 22.22-25.4 35.13-38.62 62.41-38.62v-66.663c-60.22 0-91.06 36.785-112.59 61.383-22.22 25.4-35.13 38.62-62.41 38.62zm175-100v33.33c27.28 0 40.19 13.22 62.41 38.62 21.53 24.6 52.37 61.38 112.59 61.38v-66.66c-27.28 0-40.19-13.22-62.41-38.62-21.53-24.598-52.37-61.383-112.59-61.383zm175 100v33.33c60.22 0 91.06-36.78 112.59-61.38 22.22-25.4 35.13-38.62 62.41-38.62v-66.663c-60.22 0-91.06 36.785-112.59 61.383-22.22 25.4-35.13 38.62-62.41 38.62zm175-100v33.33c27.28 0 40.19 13.22 62.41 38.62 21.53 24.6 52.37 61.38 112.59 61.38v-66.66c-27.28 0-40.19-13.22-62.41-38.62-21.53-24.598-52.37-61.383-112.59-61.383zm175 100v33.33c60.22 0 91.06-36.78 112.59-61.38 22.22-25.4 35.13-38.62 62.41-38.62v-66.663c-60.22 0-91.06 36.785-112.59 61.383-22.22 25.4-35.13 38.62-62.41 38.62zm175-66.67c18.41 0 33.33-14.92 33.33-33.33s-14.92-33.333-33.33-33.333z"/></mask><g mask="url(#a)"><g filter="url(#b)"><rect width="3621" height="3621" x="-576" y="-1498" fill="url(#c)" rx="20"/><rect width="3621" height="3621" x="-576" y="-1498" fill="url(#d)" fill-opacity=".6" rx="20"/></g><rect width="3620" height="3620" x="-575.5" y="-1497.5" stroke="url(#e)" rx="19.5"/></g><defs><linearGradient id="c" x1="-485.475" x2="2577.29" y1="-1422.56" y2="1821.25" gradientUnits="userSpaceOnUse"><stop stop-color="#ff690a"/><stop offset=".39" stop-color="#ce2100"/><stop offset=".88" stop-color="#420004"/></linearGradient><linearGradient id="e" x1="1234.5" x2="1234.5" y1="-1498" y2="1594.94" gradientUnits="userSpaceOnUse"><stop stop-color="#fff" stop-opacity=".53"/><stop offset="1" stop-color="#fff" stop-opacity="0"/></linearGradient><radialGradient id="d" cx="0" cy="0" r="1" gradientTransform="rotate(59.199 1188.935 -977.11)scale(1826.77)" gradientUnits="userSpaceOnUse"><stop stop-color="#fff"/><stop offset="1" stop-color="#fff" stop-opacity="0"/></radialGradient><filter id="b" width="3621" height="3625" x="-576" y="-1498" color-interpolation-filters="sRGB" filterUnits="userSpaceOnUse"><feFlood flood-opacity="0" result="BackgroundImageFix"/><feBlend in="SourceGraphic" in2="BackgroundImageFix" result="shape"/><feColorMatrix in="SourceAlpha" result="hardAlpha" values="0 0 0 0 0 0 0 0 0 0 0 0 0 0 0 0 0 0 127 0"/><feOffset dy="4"/><feGaussianBlur stdDeviation="3"/><feComposite in2="hardAlpha" k2="-1" k3="1" operator="arithmetic"/><feColorMatrix values="0 0 0 0 1 0 0 0 0 1 0 0 0 0 1 0 0 0 0.6 0"/><feBlend in2="shape" result="effect1_innerShadow_53623_328"/></filter></defs></svg>