<svg xmlns="http://www.w3.org/2000/svg" width="3700" height="1800" fill="none" viewBox="0 0 3700 1800"><g filter="url(#a)"><rect width="3700" height="1800" fill="url(#b)" rx="300"/><rect width="3700" height="1800" fill="url(#c)" fill-opacity=".6" rx="300"/></g><rect width="3699" height="1799" x=".5" y=".5" stroke="url(#d)" rx="299.5"/><path fill="#fff" d="M415 867q-22-5-41-17t-32-33l34-51q48-71 86-96 39-25 84-25t76 27q31 26 43 71 28-47 72-72 44-26 98-26 78 0 120 51 43 51 43 143v117c0 36.667 4.67 63 14 79 10 16 25.67 24 47 24q13.995 0 21 12c5.33 8 8 18.67 8 32 0 10.67-3 20.33-9 29-5.33 8.67-14.33 13-27 13-96.667 0-145-59.33-145-178V839q0-108-85-108-44 0-78 35-33 35-52 97-18 62-18 144v124c-6.667 2-14 3.67-22 5s-15.667 2-23 2c-16 0-31-2.33-45-7V812q0-39-10-60t-36-21q-15 0-34 14-18 13-49 61zm644.4 192c22 0 43.33-10.33 64-31 21.33-21.33 39.33-49.667 54-85-2.67-16-4-32.333-4-49 0-48 10.33-90.667 31-128q31.005-56 84-88c36-22 76.33-33 121-33q67.005 0 120 33c35.33 21.333 63 50.667 83 88 20.67 37.333 31 80 31 128s-10.33 91-31 129c-20 38-47.67 68-83 90-34.67 21.33-74.67 32-120 32-40.67 0-77.67-8.67-111-26-32.67-18-59.67-42.33-81-73q-61.995 99-165 99-13.005 0-21-12c-5.33-8-8-18.33-8-31 0-28.67 12-43 36-43m349 0q64.005 0 102-45 39-45 39-120c0-24.667-3.67-47.333-11-68-40-1.333-76.33-9.333-109-24-32-14.667-57.33-34.667-76-60q-40.005 17-63 58c-15.33 26.667-23 58.667-23 96 0 48.667 12.67 88 38 118 26 30 60.33 45 103 45m556.86 86c-62.67 0-108-23-136-69-27.34-46.67-41-110.667-41-192V696q-47.01 55-108 84-61.005 29-114 29c-12.67 0-22-4-28-12-6.67-8.667-10-19.333-10-32 0-23.333 10.33-36 31-38 40-4.667 77.33-17.333 112-38q51.99-32 84-83 33-52 33-116v-88c12.66-4.667 28-7 46-7 16 0 31.33 2.333 46 7v177h149c4.66 10.667 7 24 7 40s-2.34 29.333-7 40h-149v214q0 92 21 139c14.66 31.33 38.33 47 71 47 19.33 0 29 14.67 29 44 0 12.67-3.34 22.67-10 30-6 8-14.67 12-26 12m.22 0q-12.99 0-21-12c-5.33-8-8-18.33-8-31 0-28.67 12-43 36-43 19.34 0 39-3 59-9 20-6.67 43.34-17.67 70-33q-39-68-39-160c0-41.333 7.67-77.667 23-109 15.34-32 36.67-57 64-75q41.01-28 93-28 44.01 0 78 21c22.67 13.333 40.34 32 53 56 12.67 24 19 51.667 19 83 0 42.667-12.66 81.667-38 117q-36.99 53-126 115c21.34 15.33 50 23 86 23 9.34 0 16.67 4 22 12 5.34 8 8 18.67 8 32q0 19.005-9 30c-6 7.33-14.66 11-26 11-32 0-62-5.33-90-16s-51.33-25.33-70-44c-64 40-125.33 60-184 60m184-296c0 52.667 9.34 94.667 28 126q65.01-45 96-88c21.34-28.667 32-56 32-82q0-36-18-56-16.995-21-48-21c-26 0-47.66 11.667-65 35-16.66 23.333-25 52-25 86m160.39 296c-9.34 0-16.67-4-22-12-6-8-9-18.33-9-31 0-13.33 3.33-23.67 10-31 6.66-7.33 15.33-11 26-11 40 0 76.66-10.67 110-32q51-33 84-89c-1.34-10-2-20.667-2-32q0-76 30-135t81-93c34.66-22.667 74-34 118-34q34.995 0 69 14 33.99 13 57 36V291c12.66-4.667 28-7 46-7q22.995 0 45 7v665c0 36.667 4.66 63 14 79 10 16 25.66 24 47 24 7.33 0 15.33-1.67 24-5q12.99-4.995 27-15c11.33 5.33 20.66 14.67 28 28 7.33 12.67 10.66 25.33 10 38-10.67 12-24.34 21.67-41 29-16.67 7.33-34.67 11-54 11h-1c-63.34 0-106-26-128-78-19.34 24.67-42.67 44-70 58-27.34 13.33-57.67 20-91 20-40 0-75.34-9-106-27q-45-27-72-75c-28 32.67-61.67 58-101 76-39.34 17.33-82.34 26-129 26m290-238c0 47.333 10.66 84.667 32 112 22 26.67 52 40 90 40 42 0 75.66-14.33 101-43q39-43 39-113V791q-20.01-27-51-43c-20.67-11.333-42-17-64-17-28.67 0-54 7.667-76 23s-39.34 36.333-52 63c-12.67 26-19 56-19 90m619.63 238c-18.67 0-34.67-6.67-48-20-13.33-14-20-30.33-20-49s6.67-34.67 20-48 29.33-20 48-20 34.67 6.67 48 20q21 19.995 21 48c0 18.67-7 35-21 49-13.33 13.33-29.33 20-48 20M327 1337.67c-18.409 0-33.333 14.92-33.333 33.33s14.924 33.33 33.333 33.33zm0 33.33v33.33c60.22 0 91.063-36.78 112.586-61.38 22.227-25.4 35.134-38.62 62.414-38.62v-66.66c-60.22 0-91.063 36.78-112.586 61.38-22.227 25.4-35.134 38.62-62.414 38.62zm175-100v33.33c27.28 0 40.187 13.22 62.414 38.62 21.523 24.6 52.366 61.38 112.586 61.38v-66.66c-27.28 0-40.187-13.22-62.414-38.62-21.523-24.6-52.366-61.38-112.586-61.38zm175 100v33.33c60.22 0 91.063-36.78 112.586-61.38 22.227-25.4 35.134-38.62 62.414-38.62v-66.66c-60.22 0-91.063 36.78-112.586 61.38-22.227 25.4-35.134 38.62-62.414 38.62zm175-100v33.33c27.28 0 40.187 13.22 62.414 38.62 21.523 24.6 52.366 61.38 112.586 61.38v-66.66c-27.28 0-40.187-13.22-62.414-38.62-21.523-24.6-52.366-61.38-112.586-61.38zm175 100v33.33c60.22 0 91.06-36.78 112.59-61.38 22.22-25.4 35.13-38.62 62.41-38.62v-66.66c-60.22 0-91.06 36.78-112.59 61.38-22.22 25.4-35.13 38.62-62.41 38.62zm175-100v33.33c27.28 0 40.19 13.22 62.41 38.62 21.53 24.6 52.37 61.38 112.59 61.38v-66.66c-27.28 0-40.19-13.22-62.41-38.62-21.53-24.6-52.37-61.38-112.59-61.38zm175 100v33.33c60.22 0 91.06-36.78 112.59-61.38 22.22-25.4 35.13-38.62 62.41-38.62v-66.66c-60.22 0-91.06 36.78-112.59 61.38-22.22 25.4-35.13 38.62-62.41 38.62zm175-100v33.33c27.28 0 40.19 13.22 62.41 38.62 21.53 24.6 52.37 61.38 112.59 61.38v-66.66c-27.28 0-40.19-13.22-62.41-38.62-21.53-24.6-52.37-61.38-112.59-61.38zm175 100v33.33c60.22 0 91.06-36.78 112.59-61.38 22.22-25.4 35.13-38.62 62.41-38.62v-66.66c-60.22 0-91.06 36.78-112.59 61.38-22.22 25.4-35.13 38.62-62.41 38.62zm175-100v33.33c27.28 0 40.19 13.22 62.41 38.62 21.53 24.6 52.37 61.38 112.59 61.38v-66.66c-27.28 0-40.19-13.22-62.41-38.62-21.53-24.6-52.37-61.38-112.59-61.38zm175 100v33.33c60.22 0 91.06-36.78 112.59-61.38 22.22-25.4 35.13-38.62 62.41-38.62v-66.66c-60.22 0-91.06 36.78-112.59 61.38-22.22 25.4-35.13 38.62-62.41 38.62zm175-100v33.33c27.28 0 40.19 13.22 62.41 38.62 21.53 24.6 52.37 61.38 112.59 61.38v-66.66c-27.28 0-40.19-13.22-62.41-38.62-21.53-24.6-52.37-61.38-112.59-61.38zm175 100v33.33c60.22 0 91.06-36.78 112.59-61.38 22.22-25.4 35.13-38.62 62.41-38.62v-66.66c-60.22 0-91.06 36.78-112.59 61.38-22.22 25.4-35.13 38.62-62.41 38.62zm175-100v33.33c27.28 0 40.19 13.22 62.41 38.62 21.53 24.6 52.37 61.38 112.59 61.38v-66.66c-27.28 0-40.19-13.22-62.41-38.62-21.53-24.6-52.37-61.38-112.59-61.38zm175 100v33.33c60.22 0 91.06-36.78 112.59-61.38 22.22-25.4 35.13-38.62 62.41-38.62v-66.66c-60.22 0-91.06 36.78-112.59 61.38-22.22 25.4-35.13 38.62-62.41 38.62zm175-100v33.33c27.28 0 40.19 13.22 62.41 38.62 21.53 24.6 52.37 61.38 112.59 61.38v-66.66c-27.28 0-40.19-13.22-62.41-38.62-21.53-24.6-52.37-61.38-112.59-61.38zm175 100v33.33c60.22 0 91.06-36.78 112.59-61.38 22.22-25.4 35.13-38.62 62.41-38.62v-66.66c-60.22 0-91.06 36.78-112.59 61.38-22.22 25.4-35.13 38.62-62.41 38.62zm175-66.67c18.41 0 33.33-14.92 33.33-33.33s-14.92-33.33-33.33-33.33z"/><defs><linearGradient id="b" x1="92.5" x2="1249.39" y1="37.5" y2="2556.12" gradientUnits="userSpaceOnUse"><stop stop-color="#ff690a"/><stop offset=".39" stop-color="#ce2100"/><stop offset=".88" stop-color="#420004"/></linearGradient><linearGradient id="d" x1="1850" x2="1850" y1="0" y2="1537.5" gradientUnits="userSpaceOnUse"><stop stop-color="#fff" stop-opacity=".53"/><stop offset="1" stop-color="#fff" stop-opacity="0"/></linearGradient><radialGradient id="c" cx="0" cy="0" r="1" gradientTransform="matrix(955.833 780 -1603.33 465 323.75 0)" gradientUnits="userSpaceOnUse"><stop stop-color="#fff"/><stop offset="1" stop-color="#fff" stop-opacity="0"/></radialGradient><filter id="a" width="3700" height="1804" x="0" y="0" color-interpolation-filters="sRGB" filterUnits="userSpaceOnUse"><feFlood flood-opacity="0" result="BackgroundImageFix"/><feBlend in="SourceGraphic" in2="BackgroundImageFix" result="shape"/><feColorMatrix in="SourceAlpha" result="hardAlpha" values="0 0 0 0 0 0 0 0 0 0 0 0 0 0 0 0 0 0 127 0"/><feOffset dy="4"/><feGaussianBlur stdDeviation="3"/><feComposite in2="hardAlpha" k2="-1" k3="1" operator="arithmetic"/><feColorMatrix values="0 0 0 0 1 0 0 0 0 1 0 0 0 0 1 0 0 0 0.6 0"/><feBlend in2="shape" result="effect1_innerShadow_53623_334"/></filter></defs></svg>