<svg xmlns="http://www.w3.org/2000/svg" width="1800" height="1800" fill="none" viewBox="0 0 1800 1800"><g filter="url(#a)"><rect width="1800" height="1800" fill="url(#b)" rx="900"/><rect width="1800" height="1800" fill="url(#c)" fill-opacity=".6" rx="900"/></g><rect width="1799" height="1799" x=".5" y=".5" stroke="url(#d)" rx="899.5"/><path fill="#eadede" d="M492 708q-22-5-41-17t-32-33l34-51q48-71 86-96 39-25 84-25t76 27q31 26 43 71 28-47 72-72 44-26 98-26 78 0 120 51c28.67 34 43 81.667 43 143v117c0 36.667 4.67 63 14 79 10 16 25.67 24 47 24q10.995 0 24-5t27-15c11.33 5.333 20.67 14.667 28 28 7.33 12.667 10.67 25.333 10 38-10.67 12-24.33 21.667-41 29q-25.005 11-54 11h-1c-96.67 0-145-59.333-145-178V680q0-108-85-108-44 0-78 35-33 35-52 97-18 62-18 144v124q-10 3-22 5t-23 2q-24 0-45-7V653q0-39-10-60t-36-21q-15 0-34 14-18 13-49 61zm862.55 278q-28.005 0-48-20c-13.34-14-20-30.333-20-49s6.66-34.667 20-48q19.995-20 48-20 27.99 0 48 20 21 20 21 48t-21 49q-20.01 20-48 20M404 1178.67c-18.409 0-33.333 14.92-33.333 33.33s14.924 33.33 33.333 33.33zm0 33.33v33.33c60.22 0 91.063-36.78 112.586-61.38 22.227-25.4 35.134-38.62 62.414-38.62v-66.66c-60.22 0-91.063 36.78-112.586 61.38-22.227 25.4-35.134 38.62-62.414 38.62zm175-100v33.33c27.28 0 40.187 13.22 62.414 38.62 21.523 24.6 52.366 61.38 112.586 61.38v-66.66c-27.28 0-40.187-13.22-62.414-38.62-21.523-24.6-52.366-61.38-112.586-61.38zm175 100v33.33c60.22 0 91.063-36.78 112.586-61.38 22.227-25.4 35.134-38.62 62.414-38.62v-66.66c-60.22 0-91.063 36.78-112.586 61.38-22.227 25.4-35.134 38.62-62.414 38.62z"/><path fill="#eadede" d="M929 1112v33.33c27.28 0 40.187 13.22 62.414 38.62 21.526 24.6 52.366 61.38 112.586 61.38v-66.66c-27.28 0-40.19-13.22-62.41-38.62-21.53-24.6-52.37-61.38-112.59-61.38zm175 100v33.33c60.22 0 91.06-36.78 112.59-61.38 22.22-25.4 35.13-38.62 62.41-38.62v-66.66c-60.22 0-91.06 36.78-112.59 61.38-22.22 25.4-35.13 38.62-62.41 38.62zm175-100v33.33c27.28 0 40.19 13.22 62.41 38.62 21.53 24.6 52.37 61.38 112.59 61.38v-66.66c-27.28 0-40.19-13.22-62.41-38.62-21.53-24.6-52.37-61.38-112.59-61.38zm175 133.33c18.41 0 33.33-14.92 33.33-33.33s-14.92-33.33-33.33-33.33z"/><defs><linearGradient id="b" x1="45" x2="1567.5" y1="37.5" y2="1650" gradientUnits="userSpaceOnUse"><stop stop-color="#ff690a"/><stop offset=".39" stop-color="#ce2100"/><stop offset=".88" stop-color="#420004"/></linearGradient><linearGradient id="d" x1="900" x2="900" y1="0" y2="1537.5" gradientUnits="userSpaceOnUse"><stop stop-color="#fff" stop-opacity=".53"/><stop offset="1" stop-color="#fff" stop-opacity="0"/></linearGradient><radialGradient id="c" cx="0" cy="0" r="1" gradientTransform="rotate(59.199 78.75 138.629)scale(908.089)" gradientUnits="userSpaceOnUse"><stop stop-color="#fff"/><stop offset="1" stop-color="#fff" stop-opacity="0"/></radialGradient><filter id="a" width="1800" height="1804" x="0" y="0" color-interpolation-filters="sRGB" filterUnits="userSpaceOnUse"><feFlood flood-opacity="0" result="BackgroundImageFix"/><feBlend in="SourceGraphic" in2="BackgroundImageFix" result="shape"/><feColorMatrix in="SourceAlpha" result="hardAlpha" values="0 0 0 0 0 0 0 0 0 0 0 0 0 0 0 0 0 0 127 0"/><feOffset dy="4"/><feGaussianBlur stdDeviation="3"/><feComposite in2="hardAlpha" k2="-1" k3="1" operator="arithmetic"/><feColorMatrix values="0 0 0 0 1 0 0 0 0 1 0 0 0 0 1 0 0 0 0.6 0"/><feBlend in2="shape" result="effect1_innerShadow_53623_324"/></filter></defs></svg>