<svg width="1800" height="1800" viewBox="0 0 1800 1800" fill="none" xmlns="http://www.w3.org/2000/svg">
<g filter="url(#filter0_i_53623_324)">
<rect width="1800" height="1800" rx="900" fill="url(#paint0_linear_53623_324)"/>
<rect width="1800" height="1800" rx="900" fill="url(#paint1_radial_53623_324)" fill-opacity="0.6"/>
</g>
<rect x="0.5" y="0.5" width="1799" height="1799" rx="899.5" stroke="url(#paint2_linear_53623_324)"/>
<path d="M492 708C477.333 704.667 463.667 699 451 691C438.333 683 427.667 672 419 658L453 607C485 559.667 513.667 527.667 539 511C565 494.333 593 486 623 486C653 486 678.333 495 699 513C719.667 530.333 734 554 742 584C760.667 552.667 784.667 528.667 814 512C843.333 494.667 876 486 912 486C964 486 1004 503 1032 537C1060.67 571 1075 618.667 1075 680V797C1075 833.667 1079.67 860 1089 876C1099 892 1114.67 900 1136 900C1143.33 900 1151.33 898.333 1160 895C1168.67 891.667 1177.67 886.667 1187 880C1198.33 885.333 1207.67 894.667 1215 908C1222.33 920.667 1225.67 933.333 1225 946C1214.33 958 1200.67 967.667 1184 975C1167.33 982.333 1149.33 986 1130 986H1129C1032.33 986 984 926.667 984 808V680C984 608 955.667 572 899 572C869.667 572 843.667 583.667 821 607C799 630.333 781.667 662.667 769 704C757 745.333 751 793.333 751 848V972C744.333 974 737 975.667 729 977C721 978.333 713.333 979 706 979C690 979 675 976.667 661 972V653C661 627 657.667 607 651 593C644.333 579 632.333 572 615 572C605 572 593.667 576.667 581 586C569 594.667 552.667 615 532 647L492 708ZM1354.55 986C1335.88 986 1319.88 979.333 1306.55 966C1293.21 952 1286.55 935.667 1286.55 917C1286.55 898.333 1293.21 882.333 1306.55 869C1319.88 855.667 1335.88 849 1354.55 849C1373.21 849 1389.21 855.667 1402.55 869C1416.55 882.333 1423.55 898.333 1423.55 917C1423.55 935.667 1416.55 952 1402.55 966C1389.21 979.333 1373.21 986 1354.55 986Z" fill="#EADEDE"/>
<path d="M404 1178.67C385.591 1178.67 370.667 1193.59 370.667 1212C370.667 1230.41 385.591 1245.33 404 1245.33V1212V1178.67ZM404 1212V1245.33C464.22 1245.33 495.063 1208.55 516.586 1183.95C538.813 1158.55 551.72 1145.33 579 1145.33V1112V1078.67C518.78 1078.67 487.937 1115.45 466.414 1140.05C444.187 1165.45 431.28 1178.67 404 1178.67V1212Z" fill="#EADEDE"/>
<path d="M579 1112V1145.33C606.28 1145.33 619.187 1158.55 641.414 1183.95C662.937 1208.55 693.78 1245.33 754 1245.33V1212V1178.67C726.72 1178.67 713.813 1165.45 691.586 1140.05C670.063 1115.45 639.22 1078.67 579 1078.67V1112Z" fill="#EADEDE"/>
<path d="M754 1212V1245.33C814.22 1245.33 845.063 1208.55 866.586 1183.95C888.813 1158.55 901.72 1145.33 929 1145.33V1112V1078.67C868.78 1078.67 837.937 1115.45 816.414 1140.05C794.187 1165.45 781.28 1178.67 754 1178.67V1212Z" fill="#EADEDE"/>
<path d="M929 1112V1145.33C956.28 1145.33 969.187 1158.55 991.414 1183.95C1012.94 1208.55 1043.78 1245.33 1104 1245.33V1212V1178.67C1076.72 1178.67 1063.81 1165.45 1041.59 1140.05C1020.06 1115.45 989.22 1078.67 929 1078.67V1112Z" fill="#EADEDE"/>
<path d="M1104 1212V1245.33C1164.22 1245.33 1195.06 1208.55 1216.59 1183.95C1238.81 1158.55 1251.72 1145.33 1279 1145.33V1112V1078.67C1218.78 1078.67 1187.94 1115.45 1166.41 1140.05C1144.19 1165.45 1131.28 1178.67 1104 1178.67V1212Z" fill="#EADEDE"/>
<path d="M1279 1112V1145.33C1306.28 1145.33 1319.19 1158.55 1341.41 1183.95C1362.94 1208.55 1393.78 1245.33 1454 1245.33V1212V1178.67C1426.72 1178.67 1413.81 1165.45 1391.59 1140.05C1370.06 1115.45 1339.22 1078.67 1279 1078.67V1112ZM1454 1245.33C1472.41 1245.33 1487.33 1230.41 1487.33 1212C1487.33 1193.59 1472.41 1178.67 1454 1178.67V1212V1245.33Z" fill="#EADEDE"/>
<defs>
<filter id="filter0_i_53623_324" x="0" y="0" width="1800" height="1804" filterUnits="userSpaceOnUse" color-interpolation-filters="sRGB">
<feFlood flood-opacity="0" result="BackgroundImageFix"/>
<feBlend mode="normal" in="SourceGraphic" in2="BackgroundImageFix" result="shape"/>
<feColorMatrix in="SourceAlpha" type="matrix" values="0 0 0 0 0 0 0 0 0 0 0 0 0 0 0 0 0 0 127 0" result="hardAlpha"/>
<feOffset dy="4"/>
<feGaussianBlur stdDeviation="3"/>
<feComposite in2="hardAlpha" operator="arithmetic" k2="-1" k3="1"/>
<feColorMatrix type="matrix" values="0 0 0 0 1 0 0 0 0 1 0 0 0 0 1 0 0 0 0.6 0"/>
<feBlend mode="normal" in2="shape" result="effect1_innerShadow_53623_324"/>
</filter>
<linearGradient id="paint0_linear_53623_324" x1="45.0001" y1="37.4999" x2="1567.5" y2="1650" gradientUnits="userSpaceOnUse">
<stop stop-color="#FF690A"/>
<stop offset="0.39" stop-color="#CE2100"/>
<stop offset="0.88" stop-color="#420004"/>
</linearGradient>
<radialGradient id="paint1_radial_53623_324" cx="0" cy="0" r="1" gradientUnits="userSpaceOnUse" gradientTransform="translate(157.5 2.97278e-05) rotate(59.1986) scale(908.089)">
<stop stop-color="white"/>
<stop offset="1" stop-color="white" stop-opacity="0"/>
</radialGradient>
<linearGradient id="paint2_linear_53623_324" x1="900" y1="0" x2="900" y2="1537.5" gradientUnits="userSpaceOnUse">
<stop stop-color="white" stop-opacity="0.53"/>
<stop offset="1" stop-color="white" stop-opacity="0"/>
</linearGradient>
</defs>
</svg>
